<svg id="sun_2_" data-name="sun (2)" xmlns="http://www.w3.org/2000/svg" width="55" height="55" viewBox="0 0 55 55">
  <path id="Path_1" data-name="Path 1" d="M142.786,128.7A14.088,14.088,0,1,1,128.7,114.609,14.089,14.089,0,0,1,142.786,128.7Zm0,0" transform="translate(-101.197 -101.197)" fill="#fedb41"/>
  <path id="Path_2" data-name="Path 2" d="M226.17,8.309A1.17,1.17,0,0,1,225,7.138V1.17a1.17,1.17,0,1,1,2.34,0V7.138A1.17,1.17,0,0,1,226.17,8.309Zm0,0" transform="translate(-198.67)" fill="#fedb41"/>
  <path id="Path_3" data-name="Path 3" d="M226.17,407.309a1.17,1.17,0,0,1-1.17-1.17V400.17a1.17,1.17,0,1,1,2.34,0v5.968A1.17,1.17,0,0,1,226.17,407.309Zm0,0" transform="translate(-198.67 -352.309)" fill="#fedb41"/>
  <path id="Path_4" data-name="Path 4" d="M406.138,227.34H400.17a1.17,1.17,0,1,1,0-2.34h5.968a1.17,1.17,0,0,1,0,2.34Zm0,0" transform="translate(-352.309 -198.67)" fill="#fedb41"/>
  <path id="Path_5" data-name="Path 5" d="M7.138,227.34H1.17a1.17,1.17,0,1,1,0-2.34H7.138a1.17,1.17,0,1,1,0,2.34Zm0,0" transform="translate(0 -198.67)" fill="#fedb41"/>
  <path id="Path_6" data-name="Path 6" d="M349.36,72.859a1.17,1.17,0,0,1-.828-2l4.151-4.151a1.17,1.17,0,0,1,1.655,1.655l-4.151,4.151a1.168,1.168,0,0,1-.827.342Zm0,0" transform="translate(-307.444 -58.605)" fill="#fedb41"/>
  <path id="Path_7" data-name="Path 7" d="M67.511,354.708a1.17,1.17,0,0,1-.827-2l4.151-4.151a1.17,1.17,0,0,1,1.655,1.655l-4.151,4.151a1.166,1.166,0,0,1-.827.343Zm0,0" transform="translate(-58.577 -307.471)" fill="#fedb41"/>
  <path id="Path_8" data-name="Path 8" d="M353.538,354.708a1.166,1.166,0,0,1-.827-.343l-4.151-4.151a1.17,1.17,0,0,1,1.655-1.655l4.151,4.151a1.17,1.17,0,0,1-.827,2Zm0,0" transform="translate(-307.471 -307.471)" fill="#fedb41"/>
  <path id="Path_9" data-name="Path 9" d="M71.689,72.859a1.168,1.168,0,0,1-.827-.342l-4.151-4.151a1.17,1.17,0,0,1,1.655-1.655l4.151,4.151a1.17,1.17,0,0,1-.828,2Zm0,0" transform="translate(-58.605 -58.605)" fill="#fedb41"/>
</svg>
